# xmcd CD database file
#
# Track frame offsets:
#	150
#	19610
#	40472
#	58367
#	77402
#	102597
#	120702
#	139147
#	162257
#	187830
#	207267
#	229070
#	250340
#	272987
#	294367
#	319172
#	337820
#
# Disc length: 4661 seconds
#
# Revision: 0
# Processed by: cddbd v1.5.1PL0 Copyright (c) Steve Scherf et al.
# Submitted via: CDex 1.51
#
DISCID=f5123311
DTITLE=相川七瀬 - ID
DYEAR=1999
DGENRE=J-Pop
TTITLE0=夢見る少女じゃいられない
TTITLE1=バイバイ。
TTITLE2=LIKE A HARD RAIN
TTITLE3=BREAK OUT!
TTITLE4=今でも…。
TTITLE5=恋心
TTITLE6=トラブルメーカー
TTITLE7=Sweet Emotion
TTITLE8=こんなに愛しても
TTITLE9=鳥になれたら
TTITLE10=○○○○?
TTITLE11=Bad Girls
TTITLE12=彼女と私の事情
TTITLE13=Nostalgia
TTITLE14=Lovin' you
TTITLE15=恋心(Acoustic Version)
TTITLE16=Cosmic Love
EXTD=YEAR: 1999
EXTT0=
EXTT1=
EXTT2=
EXTT3=
EXTT4=
EXTT5=
EXTT6=
EXTT7=
EXTT8=
EXTT9=
EXTT10=
EXTT11=
EXTT12=
EXTT13=
EXTT14=
EXTT15=
EXTT16=
PLAYORDER=
